<?xml version="1.0" standalone="no"?>
<!DOCTYPE svg PUBLIC "-//W3C//DTD SVG 20010904//EN"
 "http://www.w3.org/TR/2001/REC-SVG-20010904/DTD/svg10.dtd">
<svg version="1.0" xmlns="http://www.w3.org/2000/svg"
 width="90.000000pt" height="90.000000pt" viewBox="0 0 90.000000 90.000000"
 preserveAspectRatio="xMidYMid meet">
<metadata>
Created by potrace 1.14, written by Peter Selinger 2001-2017
</metadata>
<g transform="translate(0.000000,90.000000) scale(0.100000,-0.100000)"
fill="#000000" stroke="none">
<path d="M330 876 c-60 -17 -106 -41 -160 -85 -66 -53 -86 -78 -126 -159 -36
-74 -36 -74 -31 -185 2 -62 7 -122 10 -133 14 -55 64 -134 116 -184 186 -181
465 -168 645 31 33 37 64 83 75 114 20 52 35 148 22 141 -4 -3 -8 -21 -9 -41
-7 -94 -85 -214 -182 -278 -30 -21 -37 -21 -37 -2 0 8 7 14 16 13 9 -2 15 3
13 11 -2 8 3 11 12 8 9 -4 32 13 60 43 45 48 58 69 35 54 -7 -4 -10 -1 -7 7 3
8 11 13 17 11 13 -2 46 66 37 76 -3 3 -6 -1 -6 -9 0 -12 -2 -11 -10 1 -8 11
-9 7 -5 -15 3 -16 2 -24 -1 -17 -3 7 -19 -8 -41 -40 -57 -87 -183 -168 -259
-168 -14 0 -23 -3 -20 -8 5 -8 -96 -10 -104 -2 -3 3 -30 13 -61 23 -31 9 -76
32 -101 51 -45 35 -128 134 -128 154 0 6 -4 14 -10 17 -7 4 -7 -3 0 -20 13
-33 13 -38 0 -30 -6 4 -5 -5 2 -20 6 -14 17 -24 24 -21 6 2 23 -8 38 -23 37
-38 32 -51 -6 -15 l-32 29 28 -35 c16 -19 38 -41 50 -49 21 -15 21 -14 2 7
-11 12 -15 22 -9 22 12 0 41 -30 43 -45 1 -5 4 -12 7 -15 4 -3 3 1 -1 7 -10
18 6 16 30 -2 19 -15 19 -15 -1 -9 -16 5 -17 4 -5 -5 8 -6 24 -8 35 -5 15 4
16 3 6 -4 -11 -8 -9 -11 10 -17 46 -15 138 -22 143 -11 3 8 5 8 5 0 1 -12 43
-9 109 8 31 8 40 14 30 20 -9 6 -6 7 10 3 15 -4 22 -2 20 5 -2 7 4 15 12 17
12 4 12 3 1 -5 -11 -8 -11 -10 0 -14 8 -3 -3 -12 -26 -22 -243 -103 -502 23
-581 283 -8 28 -12 80 -11 136 3 80 7 97 36 154 68 132 201 230 338 250 48 7
51 9 18 9 -22 0 -60 -5 -85 -12z m-210 -647 c0 -6 -4 -7 -10 -4 -5 3 -10 11
-10 16 0 6 5 7 10 4 6 -3 10 -11 10 -16z m651 -26 c-5 -10 -24 -31 -42 -48
-29 -27 -29 -25 7 17 42 51 50 58 35 31z m-394 -149 c-3 -3 -12 -4 -19 -1 -8
3 -5 6 6 6 11 1 17 -2 13 -5z m160 0 c-3 -3 -12 -4 -19 -1 -8 3 -5 6 6 6 11 1
17 -2 13 -5z"/>
<path d="M529 880 c57 -12 157 -62 197 -99 83 -75 138 -186 147 -294 1 -25 7
-50 11 -54 15 -15 -6 122 -29 185 -28 78 -55 116 -118 169 -63 53 -145 92
-205 98 l-47 4 44 -9z"/>
<path d="M388 833 c7 -3 16 -2 19 1 4 3 -2 6 -13 5 -11 0 -14 -3 -6 -6z"/>
<path d="M633 812 c-9 -5 -6 -12 10 -21 19 -13 21 -12 10 1 -7 8 -10 18 -6 21
9 9 1 8 -14 -1z"/>
<path d="M280 800 c-8 -5 -10 -10 -5 -10 6 0 17 5 25 10 8 5 11 10 5 10 -5 0
-17 -5 -25 -10z"/>
<path d="M390 751 c0 -36 15 -48 30 -24 11 17 11 17 6 1 -3 -10 -1 -18 4 -18
6 0 10 6 10 13 0 9 3 8 9 -2 6 -9 10 -10 16 -2 4 7 1 19 -7 28 -11 14 -11 16
1 9 9 -6 12 -5 9 4 -6 20 -28 24 -28 6 0 -9 -8 -16 -20 -16 -11 0 -20 5 -20
11 0 5 5 7 10 4 6 -3 10 -1 10 4 0 6 -7 11 -15 11 -10 0 -15 -10 -15 -29z"/>
<path d="M685 760 c10 -11 20 -20 23 -20 3 0 -3 9 -13 20 -10 11 -20 20 -23
20 -3 0 3 -9 13 -20z"/>
<path d="M360 745 c6 -16 6 -26 -2 -31 -11 -7 -28 13 -28 34 0 6 -5 12 -11 12
-14 0 -2 -52 14 -62 29 -19 51 9 37 46 -5 14 -12 26 -15 26 -2 0 0 -11 5 -25z"/>
<path d="M491 756 c-16 -20 3 -56 29 -56 23 0 43 32 34 54 -8 20 -48 21 -63 2z
m50 -13 c7 -10 9 -15 5 -11 -5 4 -15 0 -22 -10 -12 -16 -13 -16 -14 4 0 17 7
34 15 34 2 0 9 -8 16 -17z"/>
<path d="M148 733 c-14 -16 -40 -52 -57 -81 -34 -58 -42 -84 -12 -39 10 16 21
27 24 25 3 -2 9 1 14 6 5 5 3 6 -4 2 -7 -4 -13 -5 -13 -1 0 12 52 87 57 82 2
-3 -3 -18 -13 -34 -19 -30 -15 -26 31 27 16 19 23 29 15 23 -20 -18 -35 -16
-20 2 21 26 5 17 -22 -12z"/>
<path d="M577 733 c-3 -5 -2 -15 4 -23 14 -23 11 -34 -6 -20 -11 9 -15 9 -15
1 0 -6 7 -14 15 -17 19 -8 53 5 40 14 -6 4 -12 16 -13 26 -3 18 -2 18 14 5 15
-12 17 -12 12 1 -5 17 -43 26 -51 13z"/>
<path d="M720 727 c0 -2 15 -16 33 -33 l32 -29 -29 33 c-28 30 -36 37 -36 29z"/>
<path d="M247 714 c-7 -7 21 -54 32 -54 4 0 16 7 27 16 10 8 13 12 6 9 -8 -4
-23 2 -36 14 -12 12 -25 18 -29 15z"/>
<path d="M800 665 c0 -5 5 -17 10 -25 5 -8 10 -10 10 -5 0 6 -5 17 -10 25 -5
8 -10 11 -10 5z"/>
<path d="M363 645 c-39 -16 -87 -63 -108 -106 -21 -39 -32 -129 -17 -129 6 0
9 -6 6 -14 -13 -35 56 -118 124 -148 54 -24 172 -22 156 3 -3 5 3 6 12 2 13
-5 15 -3 9 7 -6 9 -4 11 4 5 25 -15 111 91 95 117 -4 6 -3 8 3 5 11 -7 24 38
14 48 -3 3 -4 22 -2 42 2 23 -1 33 -8 29 -7 -4 -9 -1 -5 8 3 8 -7 32 -21 55
-51 77 -177 113 -262 76z m97 -107 c0 -24 17 -23 25 1 9 29 30 32 30 6 0 -13
-3 -21 -7 -18 -10 5 -10 0 -2 -21 5 -14 9 -14 35 0 36 18 37 8 2 -29 -16 -16
-23 -28 -18 -27 6 1 23 2 38 1 31 -1 28 -21 -3 -21 -30 0 -34 -19 -9 -41 23
-20 8 -27 -21 -9 -20 13 -31 -7 -19 -37 10 -28 -7 -22 -29 9 -17 24 -31 15
-27 -17 4 -37 -14 -42 -21 -6 -7 35 -21 39 -40 14 -17 -24 -29 -10 -14 16 6
12 9 21 6 21 -2 0 -12 3 -22 7 -10 4 -15 2 -11 -3 3 -5 -3 -10 -13 -10 -16 0
-17 3 -7 16 7 8 18 19 25 23 19 12 5 27 -26 27 -25 1 -26 2 -9 15 11 7 26 11
35 8 12 -4 10 1 -5 16 -30 29 -29 43 2 29 31 -14 38 -8 26 25 -14 36 -3 40 25
9 l23 -27 1 26 c0 14 3 29 7 32 9 9 23 -13 23 -35z"/>
<path d="M422 503 c-22 -9 -40 -56 -31 -81 10 -28 53 -46 78 -33 53 29 52 92
-1 110 -17 6 -31 11 -32 10 -1 0 -7 -3 -14 -6z"/>
<path d="M677 654 c-8 -8 1 -24 13 -24 4 0 10 7 14 15 5 15 -14 21 -27 9z"/>
<path d="M826 578 c-6 -26 8 -46 19 -27 5 8 4 10 -4 5 -8 -6 -10 0 -5 18 3 14
4 26 1 26 -2 0 -7 -10 -11 -22z"/>
<path d="M132 558 c6 -18 28 -21 28 -4 0 9 -7 16 -16 16 -9 0 -14 -5 -12 -12z"/>
<path d="M36 525 c-3 -9 -6 -31 -5 -48 1 -28 2 -26 10 12 9 46 6 65 -5 36z"/>
<path d="M832 510 c0 -14 2 -19 5 -12 2 6 2 18 0 25 -3 6 -5 1 -5 -13z"/>
<path d="M723 480 c-16 -7 -20 -14 -15 -32 5 -18 7 -20 10 -5 2 9 8 18 13 18
5 1 14 3 19 4 6 1 15 3 21 4 14 1 1 21 -14 20 -7 0 -22 -4 -34 -9z"/>
<path d="M850 464 c0 -9 -5 -12 -12 -8 -10 6 -10 5 -1 -8 7 -8 11 -18 8 -21
-3 -4 -2 -5 2 -2 9 7 16 55 8 55 -3 0 -5 -7 -5 -16z"/>
<path d="M52 430 c0 -14 2 -19 5 -12 2 6 2 18 0 25 -3 6 -5 1 -5 -13z"/>
<path d="M140 419 c0 -5 5 -7 11 -4 6 4 13 -3 16 -15 4 -15 8 -18 13 -9 5 7 6
18 3 26 -6 15 -43 18 -43 2z"/>
<path d="M110 408 c0 -24 22 -39 37 -27 15 13 18 33 3 24 -6 -4 -17 -1 -25 5
-12 10 -15 10 -15 -2z"/>
<path d="M707 413 c-4 -3 -7 -15 -7 -25 0 -19 38 -40 55 -30 5 3 -1 9 -13 12
-25 5 -27 26 -2 23 8 -1 22 0 30 3 12 5 11 8 -5 14 -25 11 -50 12 -58 3z"/>
<path d="M834 398 c-4 -6 -3 -8 4 -4 5 3 13 0 15 -6 3 -8 6 -6 6 5 1 19 -14
23 -25 5z"/>
<path d="M51 390 c0 -8 4 -22 9 -30 12 -18 12 -2 0 25 -6 13 -9 15 -9 5z"/>
<path d="M837 350 c3 -11 7 -20 9 -20 2 0 4 9 4 20 0 11 -4 20 -9 20 -5 0 -7
-9 -4 -20z"/>
<path d="M142 348 c-14 -19 4 -58 26 -58 27 0 45 25 37 50 -7 23 -46 28 -63 8z
m45 -27 c-1 -12 -7 -17 -19 -13 -19 5 -23 14 -11 25 13 14 32 7 30 -12z"/>
<path d="M694 334 c4 -10 2 -13 -6 -8 -8 5 -9 2 -5 -10 4 -9 3 -14 -2 -11 -5
3 -12 1 -16 -4 -7 -12 49 -44 59 -34 12 12 6 25 -9 19 -12 -4 -13 -2 -6 13 6
10 9 20 8 22 -1 3 2 1 8 -3 12 -10 25 -10 25 0 0 8 -43 32 -57 32 -3 0 -2 -7
1 -16z"/>
<path d="M66 287 c3 -10 9 -15 12 -12 3 3 0 11 -7 18 -10 9 -11 8 -5 -6z"/>
<path d="M197 278 c-15 -13 -24 -27 -21 -31 12 -11 26 -8 18 4 -4 8 0 8 15 0
11 -7 21 -17 21 -24 0 -7 -4 -6 -10 3 -8 12 -10 11 -10 -8 0 -19 3 -21 18 -13
10 5 25 18 33 27 12 16 12 17 -3 11 -10 -3 -20 -1 -24 5 -4 7 -3 8 4 4 7 -4
12 -2 12 3 0 6 -4 11 -9 11 -5 0 -11 7 -13 16 -2 13 -8 12 -31 -8z"/>
<path d="M624 256 c-11 -28 1 -51 25 -51 33 0 49 28 28 49 -19 20 -46 21 -53
2z m46 -26 c0 -4 -8 -10 -18 -12 -17 -5 -20 7 -13 41 2 6 31 -21 31 -29z"/>
<path d="M260 211 c-16 -32 -11 -38 10 -11 22 29 40 19 21 -12 -7 -12 -9 -24
-4 -29 12 -12 37 35 30 55 -9 22 -44 20 -57 -3z"/>
<path d="M557 206 c-3 -8 2 -20 11 -28 10 -8 13 -9 9 -1 -5 8 0 11 13 10 24
-2 24 -1 3 -22 -16 -16 -15 -17 3 -13 29 5 25 42 -6 47 -23 3 -24 4 -5 12 19
7 19 8 -1 8 -12 1 -24 -5 -27 -13z"/>
<path d="M348 194 c8 -4 11 -18 7 -42 -6 -35 -5 -36 10 -17 21 26 15 59 -10
62 -11 2 -14 0 -7 -3z"/>
<path d="M472 138 c5 -15 28 -18 29 -3 0 6 -7 12 -17 13 -10 3 -15 -1 -12 -10z"/>
</g>
</svg>
